<svg xmlns="http://www.w3.org/2000/svg" version="1.0" preserveAspectRatio="xMidYMid meet" viewBox="20 28 204 204">
<circle cx="122" cy="130" r="102" fill="#C9E4FF"/>
<g transform="translate(0.000000,248.000000) scale(0.100000,-0.100000)" fill="#4FA949" stroke="none">
<path d="M1655 1815 c-318 -61 -449 -181 -514 -470 -35 -154 -35 -154 -56 -50 -37 176 -165 306 -341 345 -55 13 -190 18 -200 8 -9 -10 32 -118 76 -198 44 -82 148 -187 220 -222 30 -15 92 -38 137 -50 l82 -23 -6 -55 c-8 -68 -10 -277 -3 -345 l5 -49 -42 -8 c-53 -9 -161 -47 -250 -89 -69 -32 -223 -130 -243 -154 -8 -10 4 -24 52 -63 148 -117 279 -176 469 -213 327 -63 681 48 911 284 32 33 55 63 51 67 -4 4 -30 19 -58 33 -213 110 -394 156 -629 161 -151 3 -144 -2 -145 116 -3 289 92 534 252 656 78 59 95 45 23 -19 -31 -27 -72 -73 -90 -101 -33 -52 -101 -215 -92 -223 2 -2 35 12 73 32 290 156 361 231 438 464 32 96 39 184 15 187 -8 1 -69 -8 -135 -21z"/>
</g>
</svg>