<svg enable-background="new 0 0 512 512" viewBox="0 0 512 512" xmlns="http://www.w3.org/2000/svg"><path d="m108.558 9.326-96.232 96.232c-8.435 8.435-8.435 22.112 0 30.547l355.93 355.93c8.435 8.435 22.112 8.435 30.547 0l96.232-96.232c8.435-8.435 8.435-22.112 0-30.547l-355.93-355.93c-8.435-8.435-22.111-8.435-30.547 0z" fill="#ffd469"/><path d="m92.37 115.071c-3.632-3.632-3.632-9.521 0-13.153l69.663-69.663 13.153 13.153-69.663 69.663c-3.632 3.632-9.521 3.632-13.153 0zm81.682 17.021 43.909-43.909-13.152-13.153-43.909 43.909c-3.632 3.632-3.632 9.521 0 13.153 3.631 3.632 9.52 3.632 13.152 0zm17.021 68.529 69.663-69.663-13.153-13.153-69.663 69.663c-3.632 3.632-3.632 9.521 0 13.153 3.632 3.632 9.521 3.632 13.153 0zm68.529 17.021 43.909-43.909-13.153-13.153-43.909 43.909c-3.632 3.632-3.632 9.521 0 13.153 3.632 3.632 9.521 3.632 13.153 0zm17.021 68.529 69.663-69.663-13.153-13.153-69.663 69.663c-3.632 3.632-3.632 9.521 0 13.153 3.633 3.632 9.521 3.632 13.153 0zm68.529 17.021 43.909-43.909-13.153-13.153-43.908 43.909c-3.632 3.632-3.632 9.521 0 13.153 3.632 3.632 9.52 3.632 13.152 0zm17.021 68.529 69.663-69.663-13.153-13.153-69.663 69.663c-3.632 3.632-3.632 9.521 0 13.153 3.633 3.632 9.521 3.632 13.153 0zm68.529 17.021 43.909-43.909-13.153-13.153-43.909 43.909c-3.632 3.632-3.632 9.521 0 13.153 3.633 3.632 9.521 3.632 13.153 0z" fill="#aa8f4d"/></svg>