<svg xmlns="http://www.w3.org/2000/svg" version="1.0" preserveAspectRatio="xMidYMid meet" viewBox="18.67 14.34 251.28 250.76">  <g transform="translate(0.000000,277.000000) scale(0.100000,-0.100000)" fill="#129960" stroke="none"> <path d="M1245 2616 c-416 -71 -767 -338 -944 -717 -137 -292 -152 -667 -39 -959 164 -422 503 -711 940 -800 127 -26 331 -28 463 -5 488 87 879 454 1002 940 34 135 43 367 19 502 -46 268 -160 486 -351 679 -166 167 -359 278 -582 335 -101 26 -141 31 -273 35 -102 2 -182 -1 -235 -10z m352 -47 c417 -56 767 -313 943 -692 184 -396 133 -877 -131 -1227 -95 -126 -82 -123 -193 -52 -163 105 -364 194 -496 221 l-56 12 1 227 c0 125 -4 254 -8 288 l-8 60 98 28 c194 54 315 136 419 282 49 69 122 225 131 281 l6 36 -114 -6 c-188 -10 -300 -56 -411 -167 -78 -78 -131 -177 -157 -293 -9 -39 -21 -72 -27 -74 -7 -2 -25 53 -47 141 -76 314 -194 457 -447 547 -75 27 -230 62 -327 75 -49 6 -52 5 -58 -18 -16 -63 54 -298 127 -427 67 -118 215 -238 441 -356 52 -27 98 -47 102 -44 8 9 -37 125 -85 219 -29 55 -65 102 -123 161 -61 62 -78 84 -65 87 40 8 175 -116 240 -219 51 -81 92 -182 123 -299 23 -90 28 -131 32 -285 7 -232 24 -215 -214 -225 -274 -13 -459 -58 -695 -168 l-107 -50 -36 49 c-20 27 -59 92 -86 146 -91 178 -129 342 -129 553 0 200 40 362 131 542 232 452 730 715 1226 647z"/> </g> </svg>